<?xml version="1.0" encoding="utf-8"?>
<!-- Generator: Adobe Illustrator 25.4.1, SVG Export Plug-In . SVG Version: 6.00 Build 0)  -->
<svg version="1.1" id="Camada_1" xmlns="http://www.w3.org/2000/svg" xmlns:xlink="http://www.w3.org/1999/xlink" x="0px" y="0px"
	 viewBox="0 0 1080 1080" style="enable-background:new 0 0 1080 1080;" xml:space="preserve">
<style type="text/css">
	.st0{fill:#323238;}
	.st1{fill:#FEFEFE;}
</style>
<g>
	<path class="st0" d="M511.7,207.9c14.4-2.7,28.9-1.4,43.4-1.4c6.5,0,12.9,1.5,19.4,1.4c1.9,0,3.9,1.2,6.1,1.2
		c2.1,0,4.2-0.7,6.3,0.7c1.8,1.3,4.3,0.1,6.4,0.6c4.9,1.2,10.1,1.2,14.8,2.8c4.7,1.6,9.7,2.5,14.4,3.5c6.8,1.4,13.2,3.7,19.7,5.7
		c8.2,2.6,16.3,5.6,24.3,8.8c10.5,4.2,20.6,9.4,30.6,14.6c9.4,4.9,18.4,10.5,27.1,16.5c7.3,5,14.6,9.9,21.7,15.2
		c3.3,2.4,6,5.5,9.3,8c9.3,7.1,17.2,15.7,25.4,24c7.6,7.7,14,16.4,20.9,24.6c7.8,9.3,13.9,19.7,21,29.4c1.8,2.5,3.4,5.3,4.9,8
		c5.7,10.2,11.1,20.7,16.1,31.3c5.2,11.2,9.4,22.8,13.4,34.5c1.5,4.5,2.5,9.2,4.1,13.7c1.5,4.5,2.9,9.2,3.6,13.8
		c1,5.6,2.4,11.2,3.1,16.8c0.9,6.7,1.8,13.5,2.8,20.2c0.7,4.8,0.1,9.6,1.2,14.1c1.5,6.3,1,12.6,1.1,18.8c0.1,6.4,0,12.9,0,19.3
		c0.1,6.7-2.3,13.3-1.3,20.1c-1.9,3.2-0.6,6.9-1.5,10.1c-0.9,3.4-0.3,7-1.3,10.1c-1.8,5.2-1.1,10.9-3.8,15.8
		c0.1,8.8-4.6,16.5-5.3,25.1c-4,7.5-5.5,15.9-8.7,23.8c-5,12.4-10.3,24.7-16.6,36.5c-5.3,9.9-11,19.5-17.1,28.9
		c-5.2,8.2-11,16-17.1,23.6c-3.5,4.4-7.5,8.5-11,12.9c-5.4,6.7-11.7,12.5-17.6,18.6c-8.1,8.4-17.6,15.2-26.4,22.8
		c-9.4,8.1-19.8,14.6-29.9,21.4c-10.3,6.9-21.4,12.5-32.5,17.8c-13.2,6.3-26.8,11.5-40.6,16.1c-9,3-18.4,4.9-27.3,8
		c-6.1-0.5-11.4,3.6-17.5,2.7c-2.9,2.2-6.6,0.3-9.4,1.5c-3.3,1.4-6.5,0.3-9.5,1.3c-4.9,1.5-10,0.3-14.8,1.4
		c-7,1.7-13.9,0.9-20.8,1.1c-7.1,0.2-14.2,0.3-21.3-0.1c-3.1-0.1-6.2-1.4-9.4-1.3c-3.2,0.1-6.5,0.9-9.5-1.2c-0.4-0.3-1.3-0.1-2,0
		c-4.4,0.8-8.4-1.4-12.8-1.5c-3.9,0-7.8-1.9-11.6-2.3c-7.1-0.9-14-2.7-20.9-4.3c-6.6-1.5-12.9-4.2-19.5-6
		c-10.8-2.9-21-7.3-31.1-11.7c-9-3.9-17.9-8.4-26.4-13.7c-6.8-4.3-14-8-20.7-12.6c-7.7-5.2-15.3-10.5-22.6-16.2
		c-13.1-10.2-25.5-21.1-36.8-33.2c-7-7.5-13.6-15.5-20.1-23.6c-7.6-9.4-13.8-19.7-21-29.4c-1.9-2.5-3.4-5.3-4.9-8
		c-5.7-10.2-11-20.8-16.1-31.3c-5.4-11.1-9.2-22.9-13.3-34.5c-1.6-4.5-2.6-9.2-4.1-13.7c-1.5-4.5-2.9-9.2-3.6-13.8
		c-1-5.6-2.8-11.1-3-16.9c-0.1-2.3-1.9-4.2-1.4-6.8c0.4-2,0.5-4.3-1.2-6.1c-0.2-0.2-0.1-0.9,0-1.3c0.4-6.8-1.1-13.4-1.7-20.1
		c-0.6-6.3-0.8-12.5-1-18.8c-0.1-6.4,0-12.9,0-19.3c-0.1-6.7,2.3-13.3,1.3-20.1c1.9-3.2,0.6-6.9,1.5-10.1c0.9-3.4,0.3-7,1.3-10.1
		c1.8-5.2,1.1-10.9,3.8-15.8c-0.3-7.1,2.7-13.6,4.2-20.3c1.6-7.4,4.8-14.4,7.2-21.7c5.6-17.1,13.5-33.2,22-48.9
		c5.1-9.5,11.1-18.6,17.1-27.6c5-7.6,10.9-14.6,16.4-21.9c2.6-3.5,6-6.3,8.5-9.8c6-8.3,13.6-15,20.9-22c7.4-7.1,15.1-14.1,23.6-20.1
		c4.3-3.1,8.2-6.8,12.7-9.7c9.9-6.6,19.7-13.1,30.1-19c8.3-4.7,16.6-9.2,25.3-13c10.3-4.6,20.9-8.6,31.5-12.3
		c10-3.5,20.2-5.9,30.3-8.9c2.7-0.8,5.8-1.3,8.7-1.6c6.3-0.7,12.4-3.4,18.9-2.7c3.1-2.4,6.9-0.4,10-1.5
		C505.4,207.7,508.5,207.9,511.7,207.9z"/>
	<path class="st1" d="M359.2,322.6c129.9,0,259.6,0,389.7,0c0,88.2,0,176.4,0,265.1c-37.6,37.1-74.5,75.8-114,112.4
		c-27.8,0-56.2,0-84.3,0c-19.3,19.4-38.5,38.5-57.3,57.5c-19.6,0-38.7,0-57.8,0c-0.1-0.1-0.3-0.2-0.5-0.4c-0.1-0.2-0.2-0.4-0.2-0.6
		c0-18.6,0-37.3,0-56.2c-34.5,0-68.9,0-103.4,0c-0.8-2.3-0.4-4.5-0.4-6.6c0-96.9,0-193.9-0.1-290.8c0-5.5,1.8-10.3,3.6-15.2
		c2.2-6.2,5-12.2,7.1-18.4c2.3-6.8,5-13.5,7.5-20.2c2.3-6.2,5.2-12.1,7-18.4C356.8,327.8,358.8,325.6,359.2,322.6z"/>
	<path class="st0" d="M629.1,648.4c-34.3,0-69.2,0-103.7,0c-18.8,18.9-37.5,37.6-56.3,56.5c-0.4-1.4,0.1-0.2-0.6-0.7
		c-0.2-0.1-0.3-0.3-0.3-0.5c0-18.2,0-36.4,0-55.1c-28.4,0-56.7,0-85.1,0c0-91.4,0-182.3,0-273.4c104.6,0,209.3,0,314.1,0
		c0,68.6,0,137,0,205.2C674.5,602.9,652.1,625.3,629.1,648.4z"/>
	<path class="st1" d="M525.2,449.8c0,37.7,0,75.2,0,113c-12.7,0-25.3,0-37.9,0c-1-5.6-1.3-90.4-0.4-113
		C499.5,449.8,512.1,449.8,525.2,449.8z"/>
	<path class="st1" d="M592.2,449.7c12.8,0,25.3,0,38.2,0c0,37.7,0,75.4,0,113.2c-12.8,0-25.3,0-38.2,0
		C592.2,525.2,592.2,487.5,592.2,449.7z"/>
</g>
<rect x="-14.2" y="-14.2" class="st0" width="1118.4" height="1118.4"/>
<g>
	<path class="st0" d="M556.2,872.4c-2.2,0-4.3,0-6.5,0c-2.2-1.1-4.3-1.1-6.5,0c-1.7,0-3.5,0-5.2,0c-2.6-1.1-5.2-1.1-7.8,0
		c-1.7,0-3.5,0-5.2,0c-1.1-1.1-2.4-0.5-3.6-0.7c-1,0.1-2.1-0.2-2.9,0.7c-1.7,0-3.5,0-5.2,0c-15-1.4-30-2.6-44.8-6
		c-47.9-11-91.7-31.1-130.7-61.2c-35.4-27.3-64.6-60.1-86.9-98.9c-23.6-41-38.7-84.9-42.5-132c-4.5-56.4,0.8-111.7,23.7-164.3
		c16-36.9,37.3-70.2,64.9-99.7c27.3-29.1,58.6-52.6,94-70.6c32.7-16.5,67.3-27.4,103.7-32.1c6.1-0.8,12.4-0.3,18.6-1.5
		c1.7,0,3.5,0,5.2,0c0.8,0.9,1.9,0.6,2.9,0.7c0.8,0,1.5,0,2.3,0c0.8,0,1.5,0,2.3,0c1-0.1,2.1,0.2,2.9-0.7c7.8,0,15.6,0,23.4,0
		c0.9,0.9,2,0.6,3,0.7c1.1,0,2.2,0,3.2,0c0.8,0,1.6,0,2.4,0c1-0.1,2.2,0.2,3-0.7c0.9,0,1.7,0,2.6,0c14.8,1.5,29.6,2.3,44.2,5.6
		c53.2,11.8,101,34.7,142.8,69.6c44.8,37.4,78,83.3,99,137.8c11.3,29.5,19.4,59.8,19.9,91.6c0,0.9,0,1.7,0.7,2.4c0,1.3,0,2.6,0,3.9
		c-0.9,0.8-0.6,1.8-0.7,2.8c0,0.7,0,1.5,0,2.2c0,1-0.2,2,0.7,2.8c0,1.3,0,2.6,0,3.9c-1.1,2.6-1.1,5.2,0,7.8c0,1.7,0,3.5,0,5.2
		c-1.1,2.6-1.1,5.2,0,7.8c0,1.7,0,3.5,0,5.2c-1.1,1.1-0.5,2.4-0.7,3.6c0.1,1-0.2,2.1,0.7,2.9c0,2.2,0,4.3,0,6.5
		c-1.5,15.9-3.4,31.7-7,47.4c-9.6,41.5-26.7,79.7-50.9,114.6c-28.6,41.1-64.4,74.6-108,99.6C669.8,851,629.8,865,587,870.8
		c-7.2,1-14.6,0.4-21.8,1.6c-0.9,0-1.7,0-2.6,0c-0.8-0.9-1.9-0.6-2.9-0.7C558.6,871.9,557.2,871.3,556.2,872.4z"/>
	<path class="st0" d="M873,536.7c-1.8-2.4-1.8-5.4,0-7.8C873,531.5,873,534.1,873,536.7z"/>
	<path class="st0" d="M873,549.7c-1.8-2.4-1.8-5.4,0-7.8C873,544.5,873,547.1,873,549.7z"/>
	<path class="st0" d="M530.2,872.4c2.4-1.8,5.4-1.8,7.8,0C535.4,872.4,532.8,872.4,530.2,872.4z"/>
	<path class="st0" d="M543.2,872.4c2.1-1.9,4.4-1.9,6.5,0C547.5,872.4,545.3,872.4,543.2,872.4z"/>
	<path class="st0" d="M558.8,207.5c-1.3,0-2.6,0-3.9,0c-0.4-0.3-0.6-0.6-0.4-0.9c0.1-0.3,0.3-0.4,0.4-0.4c1.3,0,2.6,0,3.9,0
		c0.4,0.3,0.6,0.6,0.4,0.9C559,207.4,558.9,207.5,558.8,207.5z"/>
	<path class="st0" d="M871.7,558.8c0.5-1.3-1.2-3.3,1.3-3.9c0,1.3,0,2.6,0,3.9C872.6,559.4,872.2,559.4,871.7,558.8z"/>
	<path class="st0" d="M521.1,871.1c1.3,0.5,3.3-1.2,3.9,1.3c-1.3,0-2.6,0-3.9,0c-0.4-0.3-0.6-0.6-0.4-0.9
		C520.8,871.2,521,871.1,521.1,871.1z"/>
	<path class="st0" d="M556.2,872.4c0.6-2.5,2.6-0.8,3.9-1.3c0.4,0.3,0.6,0.6,0.4,0.9c-0.1,0.3-0.3,0.4-0.4,0.4
		C558.8,872.4,557.5,872.4,556.2,872.4z"/>
	<path class="st0" d="M521.1,207.5c-1-0.2-2.5,0.6-2.6-1.3c0.9,0,1.7,0,2.6,0c0.4,0.3,0.6,0.6,0.4,0.9
		C521.4,207.4,521.2,207.5,521.1,207.5z"/>
	<path class="st0" d="M521.1,207.5c0-0.4,0-0.9,0-1.3c0.9,0,1.7,0,2.6,0c0.4,0.3,0.6,0.6,0.4,0.9c-0.1,0.3-0.3,0.4-0.4,0.4
		C522.8,207.5,522,207.5,521.1,207.5z"/>
	<path class="st0" d="M523.7,207.5c0-0.4,0-0.9,0-1.3c0.9,0,1.7,0,2.6,0c0.4,0.3,0.6,0.6,0.4,0.9c-0.1,0.3-0.3,0.4-0.4,0.4
		C525.4,207.5,524.6,207.5,523.7,207.5z"/>
	<path class="st0" d="M554.9,206.2c0,0.4,0,0.9,0,1.3c-1-0.2-2.5,0.6-2.6-1.3C553.1,206.2,554,206.2,554.9,206.2z"/>
	<path class="st0" d="M558.8,207.5c0-0.4,0-0.9,0-1.3c0.9,0,1.7,0,2.6,0c0.4,0.3,0.6,0.6,0.4,0.9c-0.1,0.3-0.3,0.4-0.4,0.4
		C560.5,207.5,559.6,207.5,558.8,207.5z"/>
	<path class="st0" d="M871.7,519.8c0.2-1-0.6-2.5,1.3-2.6c0,0.9,0,1.7,0,2.6C872.6,520.4,872.2,520.4,871.7,519.8z"/>
	<path class="st0" d="M871.7,519.8c0.4,0,0.9,0,1.3,0c0,0.9,0,1.7,0,2.6c-0.4,0.6-0.9,0.6-1.3,0
		C871.7,521.5,871.7,520.6,871.7,519.8z"/>
	<path class="st0" d="M871.7,522.4c0.4,0,0.9,0,1.3,0c0,0.9,0,1.7,0,2.6C871.1,524.9,871.9,523.4,871.7,522.4z"/>
	<path class="st0" d="M871.7,558.8c0.4,0,0.9,0,1.3,0c0,0.9,0,1.7,0,2.6C871.1,561.3,871.9,559.8,871.7,558.8z"/>
	<path class="st0" d="M521.1,871.1c0,0.4,0,0.9,0,1.3c-0.9,0-1.7,0-2.6,0C518.6,870.4,520.1,871.3,521.1,871.1z"/>
	<path class="st0" d="M560.1,872.4c0-0.4,0-0.9,0-1.3c1,0.2,2.5-0.6,2.6,1.3C561.8,872.4,560.9,872.4,560.1,872.4z"/>
	<path class="st1" d="M488.9,465.3c26.8,0,53.3,0,80.4,0c0,11.3,0,22.4,0,33.8c4.2-2.5,6.2-6.4,8.6-9.7c5.5-8,13.1-13.1,21-18.3
		c3.8-2.4,7.8-4.1,11.9-5.9c4-1.8,8.5-3.3,12.7-3.7c4.8-0.4,9.5-1.9,14.4-1.7c5,0.3,10.1-0.6,14.9,0.2c7.8,1.3,15.7,2,23.2,5
		c8.5,3.4,16.6,7.4,23.9,12.9c3.4,2.6,6.8,5.2,9.4,8.4c8,9.6,15.2,19.6,18.5,32c1.3,4.7,3.3,9.1,4.2,13.9c0.7,3.8,1.7,7.5,2.3,11.4
		c2.6,18.2,0.9,36.5,1.2,54.8c0.3,18.4,0.1,36.9,0.1,55.3c0,18.4,0,36.9,0,55.3c-5.3,0.9-64.8,1.2-80.5,0.4c0-2.1,0-4.2,0-6.3
		c0-44,0.2-88-0.1-132.1c-0.1-10-2.6-19.6-7.5-28.7c-4.9-9.1-12.3-14.4-21.5-16.9c-5.9-1.6-12.6-3.8-18.9-0.4
		c-4.5-0.3-8.2,1.7-12.2,3.6c-7,3.2-12,8.4-16.4,14.5c-3.2,4.4-5.7,9.2-7.3,14.5c-0.2,0.6-0.6,1.1-0.5,1.7c1,6.4-1.4,12.6-1.4,19
		c0.1,42.1,0,84.1,0,126.2c0,1.7,0,3.4,0,5.2c-26.9,0-53.5,0-80.3,0C488.9,628.3,488.9,547,488.9,465.3z"/>
	<path class="st1" d="M444.5,709.6c-27.5,0-54.5,0-81.8,0c0-2,0-3.9,0-5.8c0-77.1,0-154.3,0-231.4c0-6.7,0-7.3,7-7.2
		c22.7,0.1,45.4,0,68.1,0c1.3,0,2.6-0.1,3.9,0c1.7,0.1,2.7,1.1,2.8,2.8c0.1,0.9,0,1.7,0,2.6C444.5,550.1,444.5,629.6,444.5,709.6z"
		/>
	<path class="st1" d="M358.8,390.9c-0.7-13.5,4.2-23.5,12.9-31.6c4.4-4.1,13.1-8.7,21.1-10.2c4.6-0.8,9.2-0.9,13.8-1.1
		c4.7-0.2,17.2,3,21.2,5.3c6.9,3.9,12.2,9.7,16.5,16.2c2.1,3.1,3.2,7.2,3.7,10.7c0.6,3.4,2.2,6.8,1.7,10.5
		c-2.2,15.7-5.8,28.3-24.4,37c-4,1.9-8.3,3-12.7,3.9c-3.5,0.7-7,1.3-10.5,1c-8.2-0.6-15.9-2.4-23.4-6.3
		c-9.3-4.8-14.5-12.8-18.3-21.7C358.5,400.2,357.7,394.8,358.8,390.9z"/>
</g>
</svg>
