<svg id="Camada_1" data-name="Camada 1" xmlns="http://www.w3.org/2000/svg" viewBox="0 0 1080 1080"><defs><style>.cls-1{fill:#323238;}.cls-2{fill:#fefefe;}</style></defs><rect class="cls-1" x="-14.17" y="-14.17" width="1118.37" height="1118.37"/><path class="cls-1" d="M511.66,207.89c14.4-2.69,28.93-1.35,43.4-1.39,6.46,0,12.87,1.52,19.42,1.4,1.86,0,3.9,1.23,6.11,1.23s4.21-.74,6.34.75c1.82,1.28,4.32.06,6.41.56,4.92,1.17,10.12,1.2,14.83,2.79a123.64,123.64,0,0,0,14.45,3.54c6.75,1.42,13.17,3.7,19.68,5.72,8.22,2.56,16.33,5.56,24.33,8.76,10.5,4.2,20.57,9.36,30.6,14.57a251.57,251.57,0,0,1,27.13,16.51c7.26,5,14.61,9.9,21.68,15.17,3.27,2.43,6,5.53,9.32,8,9.32,7.05,17.22,15.7,25.39,24,7.57,7.68,14,16.37,20.92,24.59,7.83,9.27,13.9,19.67,21,29.38a78.85,78.85,0,0,1,4.87,8c5.72,10.25,11.12,20.7,16.05,31.35A337.87,337.87,0,0,1,857,437.33c1.52,4.5,2.54,9.17,4.07,13.66a93.85,93.85,0,0,1,3.64,13.76c1,5.6,2.35,11.16,3.09,16.84q1.31,10.13,2.83,20.22c.71,4.76.13,9.6,1.22,14.12,1.52,6.3,1,12.56,1.13,18.84.14,6.45,0,12.9,0,19.35.06,6.74-2.31,13.32-1.34,20.13-1.88,3.18-.63,6.87-1.5,10.07-.94,3.42-.3,7-1.35,10.11-1.77,5.17-1.1,10.87-3.81,15.75.14,8.79-4.58,16.54-5.33,25.14-4,7.5-5.51,15.91-8.65,23.76a375.61,375.61,0,0,1-16.57,36.51c-5.26,9.91-11.05,19.48-17.05,28.94a249.06,249.06,0,0,1-17.08,23.55c-3.55,4.36-7.49,8.54-11,12.91-5.4,6.73-11.72,12.45-17.64,18.61-8.1,8.42-17.6,15.24-26.43,22.83-9.37,8.07-19.75,14.57-29.91,21.35S694,836.29,682.82,841.63a338,338,0,0,1-40.64,16c-9,3-18.35,4.88-27.33,8-6.05-.47-11.42,3.6-17.54,2.67-2.9,2.18-6.59.33-9.35,1.53-3.25,1.41-6.51.34-9.49,1.26-4.92,1.51-10.05.28-14.75,1.41-7,1.69-13.88.89-20.8,1.09-7.1.22-14.22.28-21.31,0-3.13-.15-6.16-1.38-9.44-1.31s-6.51.94-9.47-1.21c-.43-.32-1.32-.15-2,0-4.4.84-8.43-1.41-12.77-1.46-3.93,0-7.77-1.87-11.57-2.33-7.14-.87-14-2.73-20.94-4.34-6.59-1.54-12.93-4.19-19.48-6-10.75-2.92-21-7.34-31.13-11.69a194.85,194.85,0,0,1-26.35-13.66c-6.84-4.27-14-8-20.74-12.58-7.66-5.24-15.27-10.5-22.63-16.21a312.62,312.62,0,0,1-36.78-33.23C291.3,762,284.78,754,278.28,746c-7.61-9.42-13.84-19.71-21-29.42a76,76,0,0,1-4.86-8c-5.73-10.24-11-20.77-16.11-31.32-5.43-11.1-9.23-22.87-13.32-34.5-1.57-4.48-2.55-9.16-4.08-13.66a93.73,93.73,0,0,1-3.64-13.75c-1-5.61-2.75-11.12-3-16.86-.1-2.32-1.92-4.2-1.42-6.8.39-2,.49-4.33-1.21-6.13-.22-.24,0-.86,0-1.31.36-6.76-1.07-13.44-1.68-20.1-.57-6.28-.82-12.54-1-18.82-.14-6.45,0-12.9,0-19.35-.06-6.75,2.31-13.33,1.34-20.13,1.88-3.19.63-6.87,1.5-10.08.94-3.41.29-7,1.35-10.1,1.77-5.18,1.1-10.88,3.81-15.75-.25-7.1,2.71-13.58,4.19-20.32,1.61-7.39,4.76-14.45,7.15-21.68,5.63-17.07,13.47-33.15,22-48.92,5.15-9.53,11.13-18.57,17.09-27.61,5-7.63,10.94-14.6,16.37-21.93,2.62-3.54,6-6.3,8.53-9.78,6-8.26,13.61-15,20.88-21.95a206.71,206.71,0,0,1,23.57-20.07c4.3-3.05,8.24-6.76,12.67-9.73,9.86-6.59,19.72-13.13,30.09-19,8.28-4.67,16.65-9.18,25.27-13,10.29-4.59,20.86-8.59,31.54-12.29,10-3.46,20.19-5.91,30.27-8.88a52.33,52.33,0,0,1,8.66-1.6c6.32-.72,12.35-3.43,18.86-2.74,3.12-2.36,6.94-.37,10-1.5S508.47,207.86,511.66,207.89Z"/><path class="cls-2" d="M359.19,322.6H748.86V587.73c-37.6,37.15-74.48,75.78-114,112.37H550.6l-57.34,57.45H435.49a3.08,3.08,0,0,1-.47-.42,1,1,0,0,1-.24-.56c0-18.65,0-37.29,0-56.17H331.34c-.85-2.26-.44-4.47-.44-6.6q0-145.42-.12-290.83c0-5.52,1.83-10.31,3.62-15.22,2.24-6.18,5-12.18,7.08-18.4,2.31-6.82,5-13.5,7.5-20.24,2.28-6.16,5.22-12.12,7-18.41C356.82,327.82,358.77,325.59,359.19,322.6Z"/><path class="cls-1" d="M629.05,648.44H525.38L469,704.89c-.35-1.42.11-.19-.6-.72a.81.81,0,0,1-.34-.51c0-18.22,0-36.44,0-55.13H383V375.11H697V580.33Z"/><path class="cls-2" d="M525.24,449.82v113H487.36c-1-5.57-1.33-90.4-.43-113Z"/><path class="cls-2" d="M592.18,449.71h38.16V562.9H592.18Z"/></svg>